{
	"asset":{
		"generator":"Khronos glTF Blender I/O v3.6.28",
		"version":"2.0"
	},
	"extensionsUsed":[
		"KHR_materials_specular",
		"KHR_materials_ior"
	],
	"scene":0,
	"scenes":[
		{
			"name":"Scene",
			"nodes":[
				0,
				25
			]
		}
	],
	"nodes":[
		{
			"name":"Vac\u00edo",
			"rotation":[
				0.5,
				0.5,
				-0.5,
				0.5
			],
			"scale":[
				1.2828586101531982,
				1.2828586101531982,
				1.2828586101531982
			],
			"translation":[
				0,
				1.3169158697128296,
				3.201359748840332
			]
		},
		{
			"name":"Cabeza",
			"rotation":[
				9.388183563885377e-09,
				-1.440811274733278e-07,
				-0.05628652125597,
				0.9984146952629089
			],
			"scale":[
				1.0000001192092896,
				1.0000001192092896,
				1
			],
			"translation":[
				-4.0500594877812546e-07,
				0.5663458108901978,
				5.662741386913694e-10
			]
		},
		{
			"children":[
				1
			],
			"name":"Cuello",
			"rotation":[
				4.2937713828905544e-08,
				2.769706242133907e-08,
				-0.15176613628864288,
				0.9884164333343506
			],
			"scale":[
				0.9999999403953552,
				1.0000001192092896,
				1
			],
			"translation":[
				3.3059052384487586e-08,
				1.7155457735061646,
				-1.511466507508885e-10
			]
		},
		{
			"children":[
				2
			],
			"name":"Torso alto",
			"rotation":[
				3.1054550930775804e-08,
				8.214424696006972e-09,
				-0.12588924169540405,
				0.9920443296432495
			],
			"scale":[
				0.9999999403953552,
				1,
				1
			],
			"translation":[
				0,
				1.6085095405578613,
				0
			]
		},
		{
			"children":[
				3
			],
			"name":"Torso bajo",
			"translation":[
				0,
				1.811915397644043,
				0
			]
		},
		{
			"children":[
				4
			],
			"name":"Centro",
			"rotation":[
				0,
				1.1920928955078125e-07,
				0,
				1
			],
			"translation":[
				0,
				5.755330562591553,
				0
			]
		},
		{
			"name":"L.Mu\u00f1eca",
			"rotation":[
				0.017924370244145393,
				-7.277126817806234e-12,
				2.910850727122494e-11,
				0.9998393654823303
			],
			"scale":[
				1,
				0.9999998807907104,
				0.9999999403953552
			],
			"translation":[
				-2.9103830456733704e-10,
				2.1076390743255615,
				-9.834409411269007e-07
			]
		},
		{
			"children":[
				6
			],
			"name":"L.Brazo 2",
			"rotation":[
				0.03312196582555771,
				1.8111935562448167e-11,
				1.1281582222230635e-12,
				0.9994513392448425
			],
			"scale":[
				1,
				1,
				0.9999999403953552
			],
			"translation":[
				2.4193114178672204e-10,
				1.855472445487976,
				3.391467089386424e-07
			]
		},
		{
			"children":[
				7
			],
			"name":"L.Brazo 1",
			"rotation":[
				-0.04474303871393204,
				3.641625629519085e-12,
				0,
				0.9989985227584839
			],
			"scale":[
				1,
				0.9999999403953552,
				1
			],
			"translation":[
				2.3283064365386963e-10,
				0.8786588907241821,
				3.9143048979894957e-07
			]
		},
		{
			"children":[
				8
			],
			"name":"L.Hombro",
			"rotation":[
				-0.7523127794265747,
				0,
				4.83572687101641e-12,
				0.6588061451911926
			],
			"scale":[
				1,
				0.9999999403953552,
				0.9999999403953552
			],
			"translation":[
				-0.00935661792755127,
				8.836897850036621,
				-1.9194930791854858
			]
		},
		{
			"name":"L.Pinza 1",
			"rotation":[
				-0.6764647960662842,
				-0.21926049888134003,
				0.023985249921679497,
				0.7026698589324951
			],
			"scale":[
				0.9999998211860657,
				1,
				1
			],
			"translation":[
				0.02598780393600464,
				7.923826217651367,
				-7.333999156951904
			]
		},
		{
			"name":"L.Pinza 2",
			"rotation":[
				-0.8561962842941284,
				0.07038728147745132,
				0.041935939341783524,
				0.5101127028465271
			],
			"scale":[
				0.9999999403953552,
				1,
				1
			],
			"translation":[
				0.004661083221435547,
				7.908751010894775,
				-7.358730792999268
			]
		},
		{
			"name":"L.Pie",
			"rotation":[
				-0.04692582041025162,
				-2.9125674094743204e-11,
				-1.1189291271307411e-08,
				0.9988983869552612
			],
			"translation":[
				-4.3731063215091126e-10,
				2.697956085205078,
				-1.230177986144554e-07
			]
		},
		{
			"children":[
				12
			],
			"name":"L.Pierna 2",
			"rotation":[
				-0.116287000477314,
				1.1839351543585508e-07,
				-1.3860463887738206e-08,
				0.9932156801223755
			],
			"scale":[
				1,
				0.9999999403953552,
				1
			],
			"translation":[
				6.984919309616089e-10,
				1.5528868436813354,
				-2.1084179024910554e-07
			]
		},
		{
			"children":[
				13
			],
			"name":"L.Pierna 1",
			"rotation":[
				-0.9860162138938904,
				0,
				2.951658362171372e-11,
				0.1666494905948639
			],
			"translation":[
				0.0028581619262695312,
				5.687922477722168,
				-1.0903652906417847
			]
		},
		{
			"name":"R.Mu\u00f1eca",
			"rotation":[
				-0.017924470826983452,
				0.00043339646072126925,
				-6.005281466059387e-05,
				0.9998392462730408
			],
			"scale":[
				1,
				0.9999998211860657,
				1
			],
			"translation":[
				-1.862645149230957e-09,
				2.1076393127441406,
				8.051392796915025e-07
			]
		},
		{
			"children":[
				15
			],
			"name":"R.Brazo 2",
			"rotation":[
				-0.0331222340464592,
				0.00043106256634928286,
				-8.232823893195018e-05,
				0.999451220035553
			],
			"translation":[
				-1.3969838619232178e-09,
				1.855472207069397,
				1.2001692084595561e-08
			]
		},
		{
			"children":[
				16
			],
			"name":"R.Brazo 1",
			"rotation":[
				0.04474339261651039,
				-0.0006849940400570631,
				0.00012259517097845674,
				0.9989982843399048
			],
			"translation":[
				4.656612873077393e-10,
				0.8786587119102478,
				-1.6435551515314728e-06
			]
		},
		{
			"children":[
				17
			],
			"name":"R.Hombro",
			"rotation":[
				0.752312183380127,
				0.0012773019261658192,
				0.0011185629991814494,
				0.6588046550750732
			],
			"scale":[
				0.9999999403953552,
				0.9999999403953552,
				0.999988853931427
			],
			"translation":[
				-0.011049527674913406,
				8.836897850036621,
				1.9145516157150269
			]
		},
		{
			"name":"R.Pinza 1",
			"rotation":[
				0.6765322089195251,
				0.21752101182937622,
				0.02200470119714737,
				0.7032102942466736
			],
			"scale":[
				1.0000025033950806,
				1.000000238418579,
				1.000000238418579
			],
			"translation":[
				0.026742342859506607,
				7.923826217651367,
				7.329040050506592
			]
		},
		{
			"name":"R.Pinza 2",
			"rotation":[
				0.8561854958534241,
				-0.07002657651901245,
				0.04215444251894951,
				0.5101624727249146
			],
			"scale":[
				1,
				1,
				1.0000005960464478
			],
			"translation":[
				0.005426805000752211,
				7.908751010894775,
				7.353782653808594
			]
		},
		{
			"name":"R.Pie",
			"rotation":[
				0.04692564159631729,
				-1.127227392316854e-06,
				2.125285755028017e-05,
				0.9988983869552612
			],
			"scale":[
				1,
				1.0000001192092896,
				1
			],
			"translation":[
				1.1641532182693481e-10,
				2.6979551315307617,
				1.1743156846932834e-07
			]
		},
		{
			"children":[
				21
			],
			"name":"R.Pierna 2",
			"rotation":[
				0.11628707498311996,
				-1.216580767504638e-05,
				5.422237882157788e-05,
				0.9932156801223755
			],
			"scale":[
				1,
				0.9999999403953552,
				1
			],
			"translation":[
				2.9103830456733704e-10,
				1.5528875589370728,
				1.1761812857002951e-07
			]
		},
		{
			"children":[
				22
			],
			"name":"R.Pierna 1",
			"rotation":[
				0.9860162138938904,
				7.753753016004339e-05,
				1.307123966398649e-05,
				0.16664952039718628
			],
			"scale":[
				0.9999999403953552,
				1,
				1.0000001192092896
			],
			"translation":[
				0.0007904711528681219,
				5.687922477722168,
				1.085418462753296
			]
		},
		{
			"mesh":0,
			"name":"Ectocoloso de cuarzo",
			"skin":0
		},
		{
			"children":[
				24,
				5,
				9,
				10,
				11,
				14,
				18,
				19,
				20,
				23
			],
			"name":"Armature",
			"rotation":[
				0,
				0.7066510915756226,
				0,
				0.707562267780304
			]
		}
	],
	"materials":[
		{
			"doubleSided":true,
			"extensions":{
				"KHR_materials_specular":{
					"specularColorFactor":[
						1.194301917595021,
						1.194301917595021,
						1.194301917595021
					]
				},
				"KHR_materials_ior":{
					"ior":1.4500000476837158
				}
			},
			"name":"Material",
			"pbrMetallicRoughness":{
				"baseColorTexture":{
					"index":0
				},
				"metallicFactor":0,
				"roughnessFactor":0.5
			}
		}
	],
	"meshes":[
		{
			"name":"Cube",
			"primitives":[
				{
					"attributes":{
						"COLOR_0":0,
						"POSITION":1,
						"NORMAL":2,
						"TEXCOORD_0":3,
						"JOINTS_0":4,
						"WEIGHTS_0":5
					},
					"indices":6,
					"material":0
				}
			]
		}
	],
	"textures":[
		{
			"sampler":0,
			"source":0
		}
	],
	"images":[
		{
			"bufferView":7,
			"mimeType":"image/png",
			"name":"colot base"
		}
	],
	"skins":[
		{
			"inverseBindMatrices":7,
			"joints":[
				5,
				4,
				3,
				2,
				1,
				9,
				8,
				7,
				6,
				10,
				11,
				14,
				13,
				12,
				18,
				17,
				16,
				15,
				19,
				20,
				23,
				22,
				21
			],
			"name":"Armature"
		}
	],
	"accessors":[
		{
			"bufferView":0,
			"componentType":5123,
			"count":3060,
			"normalized":true,
			"type":"VEC4"
		},
		{
			"bufferView":1,
			"componentType":5126,
			"count":3060,
			"max":[
				9.521756172180176,
				16.5037899017334,
				3.605102777481079
			],
			"min":[
				-9.521313667297363,
				-0.026659933850169182,
				-4.457584857940674
			],
			"type":"VEC3"
		},
		{
			"bufferView":2,
			"componentType":5126,
			"count":3060,
			"type":"VEC3"
		},
		{
			"bufferView":3,
			"componentType":5126,
			"count":3060,
			"type":"VEC2"
		},
		{
			"bufferView":4,
			"componentType":5121,
			"count":3060,
			"type":"VEC4"
		},
		{
			"bufferView":5,
			"componentType":5126,
			"count":3060,
			"type":"VEC4"
		},
		{
			"bufferView":6,
			"componentType":5123,
			"count":4896,
			"type":"SCALAR"
		},
		{
			"bufferView":8,
			"componentType":5126,
			"count":23,
			"type":"MAT4"
		}
	],
	"bufferViews":[
		{
			"buffer":0,
			"byteLength":24480,
			"byteOffset":0,
			"target":34962
		},
		{
			"buffer":0,
			"byteLength":36720,
			"byteOffset":24480,
			"target":34962
		},
		{
			"buffer":0,
			"byteLength":36720,
			"byteOffset":61200,
			"target":34962
		},
		{
			"buffer":0,
			"byteLength":24480,
			"byteOffset":97920,
			"target":34962
		},
		{
			"buffer":0,
			"byteLength":12240,
			"byteOffset":122400,
			"target":34962
		},
		{
			"buffer":0,
			"byteLength":48960,
			"byteOffset":134640,
			"target":34962
		},
		{
			"buffer":0,
			"byteLength":9792,
			"byteOffset":183600,
			"target":34963
		},
		{
			"buffer":0,
			"byteLength":341426,
			"byteOffset":193392
		},
		{
			"buffer":0,
			"byteLength":1472,
			"byteOffset":534820
		}
	],
	"samplers":[
		{
			"magFilter":9729,
			"minFilter":9987
		}
	],
	"buffers":[
		{
			"byteLength":536292,
			"uri":"data:application/octet-stream;base64,"
		}
	]
}
